<svg width="140" height="36" viewBox="0 0 140 36" fill="none" xmlns="http://www.w3.org/2000/svg">
<g clip-path="url(#clip0_2311_12)">
<mask id="mask0_2311_12" style="mask-type:luminance" maskUnits="userSpaceOnUse" x="0" y="0" width="33" height="36">
<path d="M32.237 0H0V36H32.237V0Z" fill="white"/>
</mask>
<g mask="url(#mask0_2311_12)">
<path d="M2.01465 18.5723V34.0008H16.6608L2.01465 18.5723Z" fill="#19C9D1" stroke="#19C9D1" stroke-width="3" stroke-linecap="round"/>
<path d="M24.7976 34L2.01465 9.42857V2H7.9816L30.2221 26.5714V34H24.7976Z" fill="#19C9D1" stroke="#19C9D1" stroke-width="3" stroke-linecap="round"/>
<path d="M30.2207 2H16.189L30.2207 17V2Z" fill="#19C9D1" stroke="#19C9D1" stroke-width="3.21429" stroke-linecap="round"/>
</g>
<path d="M43.6168 17.5V2.92H47.4368L53.5168 13.12H53.6368L53.4968 8.56V2.92H56.5168V17.5H52.8968L46.7968 7.42H46.6768L46.7968 11.64V17.5H43.6168ZM63.7809 17.7C62.6609 17.7 61.7075 17.4733 60.9209 17.02C60.1475 16.5667 59.5542 15.9267 59.1409 15.1C58.7275 14.2733 58.5209 13.3133 58.5209 12.22C58.5209 11.06 58.7275 10.06 59.1409 9.22C59.5675 8.38 60.1609 7.73333 60.9209 7.28C61.6942 6.81333 62.6075 6.58 63.6609 6.58C64.8875 6.58 65.8875 6.84667 66.6609 7.38C67.4475 7.91333 68.0142 8.64667 68.3609 9.58C68.7075 10.5133 68.8209 11.58 68.7009 12.78H61.4009C61.4009 13.3667 61.4942 13.8667 61.6809 14.28C61.8809 14.68 62.1609 14.98 62.5209 15.18C62.8809 15.38 63.3009 15.48 63.7809 15.48C64.3409 15.48 64.7942 15.3667 65.1409 15.14C65.4875 14.9133 65.7209 14.6133 65.8409 14.24H68.6209C68.5142 14.9467 68.2409 15.56 67.8009 16.08C67.3609 16.5867 66.7942 16.9867 66.1009 17.28C65.4209 17.56 64.6475 17.7 63.7809 17.7ZM61.4009 11.24L61.1409 10.96H66.1009L65.8209 11.24C65.8475 10.68 65.7675 10.2267 65.5809 9.88C65.4075 9.52 65.1542 9.24667 64.8209 9.06C64.5009 8.87333 64.1142 8.78 63.6609 8.78C63.2075 8.78 62.8075 8.88 62.4609 9.08C62.1275 9.26667 61.8675 9.54667 61.6809 9.92C61.5075 10.28 61.4142 10.72 61.4009 11.24ZM69.136 17.5L73.176 12L69.516 6.78H72.996L74.896 9.78L75.136 10.18H75.236L75.476 9.78L77.376 6.78H80.716L77.156 11.92L81.096 17.5H77.616L75.396 14.12L75.136 13.66H75.036L74.756 14.12L72.436 17.5H69.136ZM86.3184 17.5C85.3984 17.5 84.7184 17.2867 84.2784 16.86C83.8384 16.42 83.6184 15.7267 83.6184 14.78V9.14H81.6984V6.78H83.6184V3.86L86.5584 3.58V6.78H88.7184V9.14H86.5584V14.24C86.5584 14.5733 86.6384 14.8 86.7984 14.92C86.9584 15.04 87.185 15.1 87.4784 15.1H88.7184V17.5H86.3184ZM95.2067 17.7C94.0867 17.7 93.1333 17.4733 92.3467 17.02C91.5733 16.5667 90.98 15.9267 90.5667 15.1C90.1533 14.2733 89.9467 13.3133 89.9467 12.22C89.9467 11.06 90.1533 10.06 90.5667 9.22C90.9933 8.38 91.5867 7.73333 92.3467 7.28C93.12 6.81333 94.0333 6.58 95.0867 6.58C96.3133 6.58 97.3133 6.84667 98.0867 7.38C98.8733 7.91333 99.44 8.64667 99.7867 9.58C100.133 10.5133 100.247 11.58 100.127 12.78H92.8267C92.8267 13.3667 92.92 13.8667 93.1067 14.28C93.3067 14.68 93.5867 14.98 93.9467 15.18C94.3067 15.38 94.7267 15.48 95.2067 15.48C95.7667 15.48 96.22 15.3667 96.5667 15.14C96.9133 14.9133 97.1467 14.6133 97.2667 14.24H100.047C99.94 14.9467 99.6667 15.56 99.2267 16.08C98.7867 16.5867 98.22 16.9867 97.5267 17.28C96.8467 17.56 96.0733 17.7 95.2067 17.7ZM92.8267 11.24L92.5667 10.96H97.5267L97.2467 11.24C97.2733 10.68 97.1933 10.2267 97.0067 9.88C96.8333 9.52 96.58 9.24667 96.2467 9.06C95.9267 8.87333 95.54 8.78 95.0867 8.78C94.6333 8.78 94.2333 8.88 93.8867 9.08C93.5533 9.26667 93.2933 9.54667 93.1067 9.92C92.9333 10.28 92.84 10.72 92.8267 11.24ZM102.012 17.5V6.78H104.672L104.792 8.5H104.892C105.132 7.80667 105.512 7.32667 106.032 7.06C106.566 6.78 107.172 6.64 107.852 6.64C107.972 6.64 108.079 6.64 108.172 6.64C108.266 6.64 108.359 6.64 108.452 6.64V9.4C108.386 9.4 108.292 9.4 108.172 9.4C108.052 9.4 107.926 9.4 107.792 9.4C107.139 9.4 106.606 9.5 106.192 9.7C105.779 9.88667 105.472 10.1667 105.272 10.54C105.072 10.9133 104.966 11.3667 104.952 11.9V17.5H102.012ZM110.118 17.5V6.78H113.058V17.5H110.118ZM111.578 5.52C111.125 5.52 110.751 5.4 110.458 5.16C110.165 4.92 110.018 4.58667 110.018 4.16C110.018 3.72 110.165 3.38 110.458 3.14C110.751 2.9 111.125 2.78 111.578 2.78C112.045 2.78 112.425 2.9 112.718 3.14C113.011 3.38 113.158 3.72 113.158 4.16C113.158 4.58667 113.011 4.92 112.718 5.16C112.425 5.4 112.045 5.52 111.578 5.52ZM120.367 17.68C119.553 17.68 118.82 17.56 118.167 17.32C117.513 17.0667 116.947 16.7 116.467 16.22C115.987 15.74 115.62 15.16 115.367 14.48C115.113 13.7867 114.987 13.0067 114.987 12.14C114.987 11.0333 115.2 10.0667 115.627 9.24C116.053 8.4 116.667 7.74667 117.467 7.28C118.267 6.81333 119.233 6.58 120.367 6.58C121.167 6.58 121.893 6.70667 122.547 6.96C123.2 7.21333 123.76 7.58 124.227 8.06C124.707 8.54 125.073 9.12 125.327 9.8C125.593 10.48 125.727 11.26 125.727 12.14C125.727 13.2333 125.513 14.2 125.087 15.04C124.66 15.8667 124.047 16.5133 123.247 16.98C122.46 17.4467 121.5 17.68 120.367 17.68ZM120.347 15.3C120.827 15.3 121.247 15.1867 121.607 14.96C121.98 14.72 122.26 14.3667 122.447 13.9C122.647 13.4333 122.747 12.8467 122.747 12.14C122.747 11.6067 122.693 11.1467 122.587 10.76C122.48 10.36 122.32 10.0267 122.107 9.76C121.893 9.49333 121.64 9.3 121.347 9.18C121.053 9.04667 120.727 8.98 120.367 8.98C119.887 8.98 119.46 9.09333 119.087 9.32C118.727 9.54667 118.447 9.89333 118.247 10.36C118.047 10.8267 117.947 11.42 117.947 12.14C117.947 12.6733 118 13.14 118.107 13.54C118.227 13.9267 118.393 14.2533 118.607 14.52C118.82 14.7733 119.073 14.9667 119.367 15.1C119.66 15.2333 119.987 15.3 120.347 15.3ZM127.637 17.5V6.78H130.457L130.577 8.72H130.697C130.991 8 131.444 7.46667 132.057 7.12C132.671 6.76 133.357 6.58 134.117 6.58C134.651 6.58 135.144 6.66667 135.597 6.84C136.064 7 136.464 7.25333 136.797 7.6C137.144 7.94667 137.411 8.40667 137.597 8.98C137.797 9.54 137.897 10.22 137.897 11.02V17.5H134.957V11.66C134.957 11.06 134.884 10.56 134.737 10.16C134.604 9.76 134.391 9.46667 134.097 9.28C133.804 9.08 133.417 8.98 132.937 8.98C132.431 8.98 132.004 9.1 131.657 9.34C131.311 9.58 131.044 9.89333 130.857 10.28C130.671 10.6667 130.577 11.0867 130.577 11.54V17.5H127.637Z" fill="white"/>
<path d="M47.8648 33.626C47.0995 33.626 46.4042 33.5093 45.7788 33.276C45.1628 33.0333 44.6308 32.688 44.1828 32.24C43.7348 31.792 43.3895 31.246 43.1468 30.602C42.9135 29.9487 42.7968 29.2113 42.7968 28.39C42.7968 27.5687 42.9135 26.836 43.1468 26.192C43.3895 25.548 43.7348 25.002 44.1828 24.554C44.6308 24.106 45.1628 23.7653 45.7788 23.532C46.4042 23.2893 47.0995 23.168 47.8648 23.168C48.7235 23.168 49.4888 23.3173 50.1608 23.616C50.8328 23.9147 51.3788 24.3347 51.7988 24.876C52.2188 25.408 52.4755 26.038 52.5688 26.766H50.6788C50.5948 26.3647 50.4268 26.0147 50.1748 25.716C49.9228 25.4173 49.6008 25.184 49.2088 25.016C48.8168 24.848 48.3688 24.764 47.8648 24.764C47.2208 24.764 46.6608 24.904 46.1848 25.184C45.7181 25.4547 45.3541 25.8607 45.0928 26.402C44.8315 26.9433 44.7008 27.606 44.7008 28.39C44.7008 28.978 44.7755 29.5007 44.9248 29.958C45.0741 30.4153 45.2841 30.798 45.5548 31.106C45.8348 31.414 46.1662 31.6473 46.5488 31.806C46.9408 31.9553 47.3795 32.03 47.8648 32.03C48.3595 32.03 48.8028 31.946 49.1948 31.778C49.5868 31.61 49.9135 31.3767 50.1748 31.078C50.4362 30.77 50.6042 30.4153 50.6788 30.014H52.5688C52.4848 30.7327 52.2282 31.3673 51.7988 31.918C51.3788 32.4593 50.8328 32.8793 50.1608 33.178C49.4888 33.4767 48.7235 33.626 47.8648 33.626ZM57.2243 33.626C56.6643 33.626 56.1603 33.542 55.7123 33.374C55.2643 33.1967 54.8723 32.94 54.5363 32.604C54.2096 32.268 53.9576 31.862 53.7803 31.386C53.6123 30.91 53.5283 30.3733 53.5283 29.776C53.5283 29.0107 53.6729 28.3387 53.9623 27.76C54.2609 27.1813 54.6856 26.7287 55.2363 26.402C55.7869 26.0753 56.4496 25.912 57.2243 25.912C57.7749 25.912 58.2743 26.0007 58.7223 26.178C59.1703 26.3553 59.5529 26.612 59.8703 26.948C60.1969 27.284 60.4489 27.69 60.6263 28.166C60.8036 28.6327 60.8923 29.1693 60.8923 29.776C60.8923 30.532 60.7429 31.1993 60.4443 31.778C60.1549 32.3567 59.7349 32.8093 59.1843 33.136C58.6429 33.4627 57.9896 33.626 57.2243 33.626ZM57.2103 32.184C57.5929 32.184 57.9289 32.0953 58.2183 31.918C58.5076 31.7313 58.7316 31.4607 58.8903 31.106C59.0489 30.742 59.1283 30.2987 59.1283 29.776C59.1283 29.384 59.0816 29.0387 58.9883 28.74C58.9043 28.432 58.7783 28.1753 58.6103 27.97C58.4423 27.7647 58.2416 27.6107 58.0083 27.508C57.7749 27.4053 57.5136 27.354 57.2243 27.354C56.8416 27.354 56.5009 27.4473 56.2023 27.634C55.9129 27.8113 55.6889 28.082 55.5303 28.446C55.3716 28.8007 55.2923 29.244 55.2923 29.776C55.2923 30.168 55.3343 30.518 55.4183 30.826C55.5116 31.1247 55.6423 31.3767 55.8103 31.582C55.9783 31.778 56.1789 31.9273 56.4123 32.03C56.6549 32.1327 56.9209 32.184 57.2103 32.184ZM65.2766 33.626C64.8192 33.626 64.4039 33.542 64.0306 33.374C63.6572 33.1967 63.3352 32.9447 63.0646 32.618C62.7939 32.282 62.5839 31.876 62.4346 31.4C62.2946 30.9147 62.2246 30.3733 62.2246 29.776C62.2246 28.964 62.3506 28.2687 62.6026 27.69C62.8639 27.1113 63.2232 26.6727 63.6806 26.374C64.1379 26.066 64.6699 25.912 65.2766 25.912C65.6686 25.912 66.0232 25.9727 66.3406 26.094C66.6672 26.2153 66.9426 26.388 67.1666 26.612C67.3999 26.836 67.5726 27.0973 67.6846 27.396H67.7546V23.294H69.5046V33.5H67.8526L67.7826 32.142H67.6846C67.5259 32.59 67.2319 32.9493 66.8026 33.22C66.3732 33.4907 65.8646 33.626 65.2766 33.626ZM65.8926 32.198C66.3032 32.198 66.6439 32.1093 66.9146 31.932C67.1946 31.7453 67.4046 31.498 67.5446 31.19C67.6846 30.882 67.7546 30.5413 67.7546 30.168V29.37C67.7546 28.9873 67.6799 28.642 67.5306 28.334C67.3906 28.026 67.1806 27.7833 66.9006 27.606C66.6299 27.4287 66.3079 27.34 65.9346 27.34C65.5146 27.34 65.1599 27.438 64.8706 27.634C64.5906 27.8207 64.3759 28.096 64.2266 28.46C64.0772 28.824 64.0026 29.2627 64.0026 29.776C64.0026 30.2707 64.0726 30.7 64.2126 31.064C64.3619 31.428 64.5766 31.708 64.8566 31.904C65.1366 32.1 65.4819 32.198 65.8926 32.198ZM74.4739 33.626C73.7179 33.626 73.0739 33.472 72.5419 33.164C72.0192 32.8467 71.6179 32.4033 71.3379 31.834C71.0579 31.2553 70.9179 30.5833 70.9179 29.818C70.9179 29.0247 71.0579 28.3387 71.3379 27.76C71.6179 27.172 72.0192 26.7193 72.5419 26.402C73.0646 26.0847 73.6852 25.926 74.4039 25.926C75.2252 25.926 75.8972 26.108 76.4199 26.472C76.9519 26.8267 77.3346 27.3213 77.5679 27.956C77.8012 28.5907 77.8806 29.3187 77.8059 30.14H72.6259C72.6259 30.616 72.7006 31.0173 72.8499 31.344C73.0086 31.6613 73.2232 31.904 73.4939 32.072C73.7739 32.2307 74.1006 32.31 74.4739 32.31C74.9126 32.31 75.2672 32.2167 75.5379 32.03C75.8179 31.8433 76.0046 31.596 76.0979 31.288H77.7499C77.6752 31.7733 77.4886 32.1933 77.1899 32.548C76.8912 32.8933 76.5086 33.1593 76.0419 33.346C75.5752 33.5327 75.0526 33.626 74.4739 33.626ZM72.6259 29.202L72.4719 29.02H76.2659L76.0979 29.216C76.1166 28.7587 76.0559 28.3853 75.9159 28.096C75.7759 27.8067 75.5752 27.592 75.3139 27.452C75.0526 27.312 74.7492 27.242 74.4039 27.242C74.0492 27.242 73.7412 27.3167 73.4799 27.466C73.2186 27.6153 73.0132 27.8393 72.8639 28.138C72.7146 28.4273 72.6352 28.782 72.6259 29.202ZM79.2982 33.5V23.294H81.1462V32.198L80.8382 31.848H85.8642V33.5H79.2982ZM89.5305 33.626C89.0731 33.626 88.6578 33.542 88.2845 33.374C87.9111 33.1967 87.5891 32.9447 87.3185 32.618C87.0478 32.282 86.8378 31.876 86.6885 31.4C86.5485 30.9147 86.4785 30.3733 86.4785 29.776C86.4785 28.964 86.6045 28.2687 86.8565 27.69C87.1178 27.1113 87.4771 26.6727 87.9345 26.374C88.3918 26.066 88.9238 25.912 89.5305 25.912C89.9225 25.912 90.2771 25.9727 90.5945 26.094C90.9211 26.2153 91.1965 26.388 91.4205 26.612C91.6538 26.836 91.8265 27.0973 91.9385 27.396H92.0365L92.1065 26.052H93.7585V33.5H92.1065L92.0365 32.142H91.9385C91.7798 32.59 91.4858 32.9493 91.0565 33.22C90.6271 33.4907 90.1185 33.626 89.5305 33.626ZM90.1465 32.198C90.5571 32.198 90.8978 32.1093 91.1685 31.932C91.4485 31.7453 91.6585 31.498 91.7985 31.19C91.9385 30.882 92.0085 30.5413 92.0085 30.168V29.37C92.0085 28.9873 91.9338 28.642 91.7845 28.334C91.6445 28.026 91.4345 27.7833 91.1545 27.606C90.8838 27.4287 90.5618 27.34 90.1885 27.34C89.7685 27.34 89.4138 27.438 89.1245 27.634C88.8445 27.8207 88.6298 28.096 88.4805 28.46C88.3311 28.824 88.2565 29.2627 88.2565 29.776C88.2565 30.2707 88.3265 30.7 88.4665 31.064C88.6158 31.428 88.8305 31.708 89.1105 31.904C89.3905 32.1 89.7358 32.198 90.1465 32.198ZM99.8758 33.64C99.4838 33.64 99.1245 33.5793 98.7978 33.458C98.4711 33.3273 98.1911 33.15 97.9578 32.926C97.7338 32.702 97.5705 32.4453 97.4678 32.156H97.3698L97.2998 33.5H95.6338V23.294H97.3838V27.41H97.4678C97.6265 26.962 97.9205 26.6027 98.3498 26.332C98.7791 26.052 99.2878 25.912 99.8758 25.912C100.333 25.912 100.748 26.0007 101.122 26.178C101.495 26.3553 101.817 26.612 102.088 26.948C102.358 27.2747 102.564 27.676 102.704 28.152C102.853 28.628 102.928 29.1693 102.928 29.776C102.928 30.5787 102.797 31.2693 102.536 31.848C102.284 32.4267 101.929 32.87 101.472 33.178C101.014 33.486 100.482 33.64 99.8758 33.64ZM99.2178 32.212C99.6285 32.212 99.9785 32.114 100.268 31.918C100.557 31.722 100.772 31.442 100.912 31.078C101.061 30.7047 101.136 30.2707 101.136 29.776C101.136 29.4027 101.094 29.0667 101.01 28.768C100.935 28.4693 100.818 28.2173 100.66 28.012C100.501 27.7973 100.305 27.634 100.072 27.522C99.8385 27.4007 99.5678 27.34 99.2598 27.34C98.8491 27.34 98.5038 27.4333 98.2238 27.62C97.9438 27.7973 97.7338 28.0447 97.5938 28.362C97.4538 28.67 97.3838 29.0107 97.3838 29.384V30.182C97.3838 30.5647 97.4585 30.91 97.6078 31.218C97.7571 31.5167 97.9671 31.7593 98.2378 31.946C98.5085 32.1233 98.8351 32.212 99.2178 32.212ZM107.196 33.64C106.701 33.64 106.258 33.584 105.866 33.472C105.483 33.3507 105.152 33.1873 104.872 32.982C104.601 32.7673 104.386 32.5153 104.228 32.226C104.078 31.9273 103.999 31.596 103.99 31.232H105.712C105.74 31.5027 105.819 31.722 105.95 31.89C106.08 32.058 106.253 32.184 106.468 32.268C106.692 32.3427 106.948 32.38 107.238 32.38C107.686 32.38 108.022 32.3007 108.246 32.142C108.479 31.974 108.596 31.7453 108.596 31.456C108.596 31.2227 108.54 31.0453 108.428 30.924C108.325 30.7933 108.157 30.6953 107.924 30.63C107.7 30.5553 107.396 30.49 107.014 30.434C106.379 30.3407 105.852 30.2147 105.432 30.056C105.012 29.888 104.699 29.6593 104.494 29.37C104.288 29.0807 104.186 28.698 104.186 28.222C104.186 27.7553 104.312 27.3493 104.564 27.004C104.825 26.6587 105.184 26.3927 105.642 26.206C106.099 26.01 106.631 25.912 107.238 25.912C107.835 25.912 108.353 26.0053 108.792 26.192C109.23 26.3787 109.571 26.6447 109.814 26.99C110.066 27.3353 110.201 27.7367 110.22 28.194H108.498C108.498 27.9513 108.437 27.7553 108.316 27.606C108.204 27.4567 108.05 27.3447 107.854 27.27C107.667 27.1953 107.448 27.158 107.196 27.158C106.804 27.158 106.496 27.242 106.272 27.41C106.048 27.5687 105.936 27.788 105.936 28.068C105.936 28.2733 105.992 28.4413 106.104 28.572C106.225 28.6933 106.416 28.7913 106.678 28.866C106.939 28.9407 107.275 29.006 107.686 29.062C108.283 29.146 108.778 29.2673 109.17 29.426C109.571 29.5847 109.87 29.8133 110.066 30.112C110.271 30.4107 110.374 30.8073 110.374 31.302C110.374 31.7967 110.238 32.2213 109.968 32.576C109.706 32.9213 109.338 33.1873 108.862 33.374C108.386 33.5513 107.83 33.64 107.196 33.64Z" fill="white"/>
</g>
<defs>
<clipPath id="clip0_2311_12">
<rect width="139.237" height="36" fill="white"/>
</clipPath>
</defs>
</svg>
